<svg xmlns="http://www.w3.org/2000/svg" viewBox="0 0 2048 2048">
    <g id="Round">
        <path d="M278.4,1103.61l130-1a51.8,51.8,0,0,0,50.55-42.44l62.49-339.9L896.9,1706a51,51,0,0,0,47.7,32.88h161.25a52,52,0,0,0,48.57-33.52l373.15-983.13,62.2,339.06a50.43,50.43,0,0,0,49.23,41.34l132.26,1a50.81,50.81,0,0,0,50.34-60.2l-130-692.27a50.41,50.41,0,0,0-49.24-41.1l-146.25-.89A99.84,99.84,0,0,0,1402.2,375L1027.57,1410.45,659,376.2a100.94,100.94,0,0,0-95.06-67H407.5a51.51,51.51,0,0,0-50.62,42L226.74,1041.8A52.15,52.15,0,0,0,278.4,1103.61Z" />
    </g>
</svg>